<?xml version="1.0" encoding="UTF-8" standalone="no"?>
<!-- Created with Inkscape (http://www.inkscape.org/) -->

<svg
   width="213.78333mm"
   height="194.73334mm"
   viewBox="0 0 213.78332 194.73333"
   version="1.1"
   id="svg1"
   xml:space="preserve"
   xmlns:inkscape="http://www.inkscape.org/namespaces/inkscape"
   xmlns:sodipodi="http://sodipodi.sourceforge.net/DTD/sodipodi-0.dtd"
   xmlns="http://www.w3.org/2000/svg"
   xmlns:svg="http://www.w3.org/2000/svg"><sodipodi:namedview
     id="namedview1"
     pagecolor="#ffffff"
     bordercolor="#000000"
     borderopacity="0.25"
     inkscape:showpageshadow="2"
     inkscape:pageopacity="0.0"
     inkscape:pagecheckerboard="0"
     inkscape:deskcolor="#d1d1d1"
     inkscape:document-units="mm"><inkscape:page
       x="9.2483579e-06"
       y="1.8354305e-06"
       width="213.78333"
       height="194.73334"
       id="page530"
       inkscape:export-filename=".\Página 4.svg"
       inkscape:export-xdpi="96"
       inkscape:export-ydpi="96"
       margin="0"
       bleed="0" /></sodipodi:namedview><defs
     id="defs1" /><g
     inkscape:groupmode="layer"
     id="layer7"
     inkscape:label="paguina4"
     transform="translate(-712.2583,-44.45)"><path
       style="fill:#efb51f;fill-opacity:1;stroke:none;stroke-width:1.4;stroke-dasharray:none;stroke-opacity:1"
       d="M 823.19012,59.868373 C 862.85294,197.56563 741.99365,169.50233 741.99365,169.50233 l 13.09622,-70.719513 z"
       id="path893" /><circle
       style="fill:#ddb112;fill-opacity:1;stroke:none;stroke-width:1.4;stroke-dasharray:none;stroke-opacity:1"
       id="path531-9"
       cx="822.02411"
       cy="143.69992"
       r="88.370834" /><ellipse
       style="opacity:1;fill:#f9d421;fill-opacity:1;stroke:none;stroke-width:1.4;stroke-dasharray:none;stroke-opacity:1"
       id="path531"
       cx="821.79584"
       cy="143.93333"
       rx="84.137497"
       ry="83.608337" /><ellipse
       style="fill:#daa523;fill-opacity:1;stroke:none;stroke-width:1.4;stroke-dasharray:none;stroke-opacity:1"
       id="path531-5"
       cx="821.39886"
       cy="144.33022"
       rx="70.776039"
       ry="71.569794"
       inkscape:transform-center-x="-55.19637"
       inkscape:transform-center-y="34.425975" /><path
       style="fill:#ffd466;fill-opacity:1;stroke:none;stroke-width:1.4;stroke-dasharray:none;stroke-opacity:1"
       d="m 777.35342,115.05953 3.36759,-0.37418 8.60607,-6.5481 10.1028,-8.04481 9.91568,-6.735196 c 0,0 -2.24507,-10.851142 -18.52176,-2.61924 -16.27671,8.231901 -16.65091,15.341266 -16.65091,15.341266 0,0 -0.37418,8.41899 3.18053,8.98026 z"
       id="path532" /><path
       style="fill:#efb51f;fill-opacity:1;stroke:none;stroke-width:1.4;stroke-dasharray:none;stroke-opacity:1"
       d="m 791.46337,133.5714 c 0,-0.39687 5.88697,-9.06198 5.88697,-9.06198 l 3.04271,-3.83646 c 0,0 3.24115,-2.91041 4.23334,-3.43958 0.99218,-0.52917 7.20989,-2.64583 7.47448,-2.84427 0.26458,-0.19844 5.09322,-1.32292 5.09322,-1.32292 l 6.08542,-0.19843 8.92969,2.51354 5.4901,2.71198 8.13594,7.34218 2.51354,2.91042 2.57969,4.63021 0.33073,1.38906 c 0,0 -2.18281,0.13229 -2.57969,0.0661 -0.39687,-0.0661 -6.74687,-0.33073 -6.74687,-0.33073 0,0 -10.25261,0 -11.04636,0 -0.79375,0 -3.77031,0.59531 -3.77031,0.59531 l -2.24896,2.97656 -0.99219,1.85209 c 0,0 -4.23333,0.52916 -4.56406,0.39687 -0.33073,-0.13229 -0.66146,-0.99219 -1.19062,-1.91823 -0.52917,-0.92604 -1.12448,-2.64583 -2.11667,-3.04271 -0.99219,-0.39687 -3.70417,-0.79375 -5.55625,-1.05833 -1.85208,-0.26458 -14.55208,0.0661 -14.94896,0.19844 -0.39687,0.13229 -3.37344,0.79375 -3.37344,0.79375 z"
       id="path515-4" /><path
       style="fill:#f9d421;fill-opacity:1;stroke:none;stroke-width:1.4;stroke-dasharray:none;stroke-opacity:1"
       d="m 815.11198,150.41129 0.28065,1.3564 1.40316,-0.0468 9.49476,0.14031 1.07574,-1.26285 -1.63703,-3.695 c 0,0 -1.07574,-1.1693 -1.35638,-1.87089 -0.28062,-0.70158 -1.029,-1.87088 -1.029,-1.87088 l -4.44336,0.23386 -1.40316,3.78854 z"
       id="path516-5" /><path
       style="fill:#ffd365;fill-opacity:1;stroke:none;stroke-width:1.4;stroke-dasharray:none;stroke-opacity:1"
       d="m 788.77925,137.128 -0.37418,4.63044 c 0,0 1.26286,1.30962 1.26286,1.63703 0,0.3274 0.74835,4.5369 0.74835,4.5369 l 1.40316,2.43215 1.82412,1.54348 4.06918,1.07576 4.67723,0.60804 6.2207,-0.28063 c 0,0 3.13372,-0.98222 3.6482,-1.16931 0.51451,-0.18709 2.38541,-2.19829 2.38541,-2.19829 0,0 2.05795,-2.24506 2.15151,-2.43215 0.0935,-0.18709 1.77734,-2.15152 1.77734,-2.15152 0,0 0.46773,-1.82411 1.07577,-1.82411 0.60804,0 2.66599,-0.23387 2.66599,-0.23387 l 1.30964,0.14032 c 0,0 0.23386,1.49671 0.46773,1.87089 0.23384,0.37417 0.65479,1.12253 0.79512,1.44994 0.14031,0.3274 0.65479,1.35639 0.65479,1.35639 0,0 0.98222,1.59025 1.12255,1.82411 0.14031,0.23386 3.0402,2.61924 3.0402,2.61924 l 1.54347,0.37418 4.39658,0.60804 c 0,0 7.62386,-0.0935 8.04482,-0.23386 0.42095,-0.14032 4.49013,-1.16931 4.49013,-1.16931 l 2.94664,-1.82411 c 0,0 0.88866,-1.77734 1.12252,-2.5257 0.23387,-0.74835 0.42096,-3.32082 0.79513,-3.60145 0.37417,-0.28064 1.12255,-1.73058 1.12255,-1.73058 0,0 -0.14034,-4.34981 -0.14034,-4.58367 0,-0.23386 -0.18708,-1.44993 -0.18708,-1.44993 0,0 -4.06916,-1.6838 -4.49012,-1.82412 -0.42095,-0.14031 -8.74641,-0.51449 -8.93349,-0.51449 -0.18709,0 -11.69305,0.3274 -11.69305,0.3274 l -2.89986,1.54348 c 0,0 -0.79513,2.10475 -1.1693,2.66602 -0.37418,0.56126 -2.38538,1.35639 -2.38538,1.35639 l -3.18053,-0.42095 -3.13372,-4.39658 -3.32082,-1.16931 -12.62848,-0.0468 -7.29647,1.02899 z"
       id="path517-0" /><path
       style="fill:#380101;fill-opacity:1;stroke:none;stroke-width:1.4;stroke-dasharray:none;stroke-opacity:1"
       d="m 833.7967,112.86776 1.19062,1.12447 16.40417,-8.26822 0.19844,-2.11667 c 0,0 -12.10469,5.09323 -12.30313,5.35781 -0.19844,0.26458 -5.4901,3.90261 -5.4901,3.90261 z"
       id="path518-9" /><path
       style="fill:#ffed1e;fill-opacity:1;stroke:none;stroke-width:1.4;stroke-dasharray:none;stroke-opacity:1"
       d="m 790.27597,146.95015 1.49672,3.64823 2.99342,1.96443 c 0,0 2.3386,0.65481 3.36759,0.65481 1.02899,0 6.26747,-0.18708 6.26747,-0.18708 0,0 5.23849,-0.18709 5.70619,-0.18709 0.46773,0 4.49014,-1.49671 4.86431,-1.59026 0.37418,-0.0935 1.96443,0.56127 1.96443,0.56127 l 8.88672,0.18709 2.3386,-1.21608 c 0,0 0.28064,0.0935 1.30963,0.65481 1.02899,0.56127 3.64824,1.87089 3.64824,1.87089 0,0 2.61921,-0.37418 3.92885,-0.18709 1.3096,0.18709 8.79316,-0.46772 8.79316,-0.46772 l 4.30305,-1.77734 2.52569,-4.30304 1.21607,-2.24507 4.30305,5.23848 4.11594,6.36102 2.3386,7.10937 1.21608,5.98684 -0.65479,0.8419 -4.02241,-2.99342 -0.18709,3.83532 -11.59951,0.37417 -10.47695,-0.0935 -5.42557,1.59025 -8.60608,2.24507 -6.08039,-0.18709 -8.32545,-1.30962 -5.98684,-2.5257 h -22.73128 c 0,0 1.21608,-5.23848 0.74838,-4.49013 -0.46773,0.74835 -5.23849,3.83532 -5.23849,3.83532 l 0.46771,-4.49013 c 0,0 0.93546,-3.55469 0.93546,-4.11595 0,-0.56127 1.40316,-5.61266 1.40316,-5.61266 0,0 3.08695,-5.33203 3.27406,-5.70621 0.18709,-0.37417 5.33202,-4.20949 5.33202,-4.20949 l 1.12252,-0.18709 z"
       id="path529-9" /><path
       style="fill:#d8a017;fill-opacity:1;stroke:none;stroke-width:1.4;stroke-dasharray:none;stroke-opacity:1"
       d="m 789.01597,146.60213 -4.49792,4.56406 -2.71198,4.36563 -1.5875,3.30729 -1.19062,3.9026 -0.8599,5.55625 4.23334,-3.96875 1.12448,0.0661 0.7276,0.7276 -0.33073,1.32292 -0.92604,2.05052 -0.0661,0.99219 22.82032,0.26458 3.0427,1.71979 3.83646,1.25677 4.43177,1.12448 2.51354,-0.0661 5.95313,0.13229 4.56406,-1.25677 6.54844,-2.71198 23.41562,-0.19844 -1.12448,-3.9026 -0.19843,-1.12448 0.59531,-0.26459 h 0.46302 l 1.32292,0.72761 3.50573,3.43958 -0.39688,-2.71198 -0.52917,-3.50573 -1.19062,-3.96875 -1.52135,-2.84427 -1.98438,-2.84427 -2.05052,-3.04271 -3.04271,-3.24114 0.8599,-1.38906 c 0,0 13.36146,12.10468 11.8401,25.86302 l -1.05838,0.79376 -1.5875,-1.52136 -2.38125,-2.3151 0.52917,2.64583 -0.26458,0.99219 -0.52917,0.33073 h -23.74635 c 0,0 -16.47032,9.12812 -32.47761,-0.0661 l -24.34166,-0.26463 0.46302,-3.30729 -4.10105,3.57187 -1.32291,-0.99218 0.85989,-6.01927 c 0,0 2.77813,-14.22136 11.50938,-19.9099"
       id="path500-7" /><path
       style="fill:#d8a017;fill-opacity:1;stroke:none;stroke-width:1.4;stroke-dasharray:none;stroke-opacity:1"
       d="m 814.81284,151.95994 1.78594,0.46302 c 0,0 -0.52916,3.83646 3.83646,5.35782 l 0.0661,0.99218 c 0,0 -4.29948,3.37344 -5.88698,-1.25677 0,0 -0.7937,5.68855 6.48234,3.04271 0,0 7.73907,3.77031 11.44323,-4.36562 0,0 -6.48229,5.95312 -10.2526,2.51354 l -0.0661,-0.92604 c 0,0 3.50573,-0.79375 4.16719,-4.56407 l 1.19058,-1.25677 -1.05834,-1.38906 -1.19062,0.92604 c 0,0 -4.10104,-1.52135 -7.34219,-0.0661 l -1.71979,-0.99223 z"
       id="path501-4" /><path
       style="fill:#d8a017;fill-opacity:1;stroke:none;stroke-width:1.4;stroke-dasharray:none;stroke-opacity:1"
       d="m 820.03837,144.08859 3.0427,-0.0661 0.26459,2.64584 1.65364,1.05833 1.38907,2.91042 2.18281,2.05052 2.64583,1.32291 11.17865,0.39688 3.9026,-0.59531 4.0349,-1.5875 2.38125,-2.84428 2.05052,-4.36562 v -1.91823 c 0,0 0.66146,-0.99219 0.66146,-1.25677 0,-0.26458 0.0661,-4.63021 0.0661,-4.63021 l -1.5875,-2.38125 -0.99219,-0.33073 -2.64583,-0.66146 0.79375,3.04271 2.38125,0.0661 0.46302,5.42396 -1.65364,-0.0661 -0.26459,3.83646 c 0,0 -0.46302,3.30729 -2.91041,4.56406 -2.4474,1.25677 -4.7625,1.65365 -4.7625,1.65365 l -12.17084,0.13229 c 0,0 -4.63021,-1.91823 -5.95312,-6.21771 l -1.05829,-0.52921 -0.19844,-1.91823 -1.12448,-1.19063 -4.82864,-0.26458 -1.19063,1.52135 -0.19844,1.85209 -1.19062,0.52916 -0.79375,1.78594 -1.38906,1.98437 -2.24896,1.85209 -1.98438,0.59531 -11.24479,-0.13229 -3.37344,-0.59531 -2.05052,-1.32292 -1.25677,-1.32292 -0.52916,-0.59531 -0.79375,-1.78594 -0.1323,-3.96875 -0.99218,-0.7276 -0.72761,-0.92604 0.26459,-3.90261 1.25677,-0.7276 1.71979,0.46302 1.91823,-1.65365 -0.46302,-1.71979 -1.32292,0.52917 1.19063,-2.18281 -1.78594,-1.05834 -1.65365,3.70417 c 0,0 -2.64583,0.66146 -2.64583,3.9026 0,3.24115 0.0661,3.77032 0.0661,3.77032 l 0.72761,0.92604 0.0661,1.98437 c 0,0 1.05834,6.28386 5.68855,7.80521 4.6302,1.52136 6.01927,1.38906 6.01927,1.38906 l 6.61458,0.26459 c 0,0 6.81302,-0.0661 8.59896,-2.77813 1.78594,-2.71198 2.3151,-3.57187 2.3151,-3.57187 l 1.38907,-0.8599 0.66145,-1.65364 z"
       id="path502-6" /><path
       style="fill:#d9a118;fill-opacity:1;stroke:none;stroke-width:1.4;stroke-dasharray:none;stroke-opacity:1"
       d="m 792.66135,133.94749 2.10476,-1.07576 19.03626,0.18709 c 0,0 4.86432,1.63703 5.47235,5.28525 l 0.0935,0.5145 4.02241,-0.0935 c 0,0 0.42095,-5.84652 9.26089,-5.79975 8.83994,0.0468 14.96709,0.0935 14.96709,0.0935 l 3.46114,1.02899 0.0935,2.89987 c 0,0 -1.82412,-2.10474 -4.81754,-2.10474 -2.99341,0 -16.08962,-0.0468 -16.08962,-0.0468 0,0 -4.06918,0.14032 -5.00462,3.97564 l -0.37409,1.91768 -6.87551,0.3274 -1.49671,-3.78854 -3.83532,-2.89988 -19.45722,1.02899 z"
       id="path503-3" /><path
       style="fill:#7a1e04;fill-opacity:1;stroke:none;stroke-width:1.4;stroke-dasharray:none;stroke-opacity:1"
       d="m 802.62383,134.83616 12.11398,0.5145"
       id="path504-9" /><path
       style="fill:#d8a017;fill-opacity:1;stroke:none;stroke-width:1.4;stroke-dasharray:none;stroke-opacity:1"
       d="m 806.50591,134.18135 -1.26286,-0.3274 -3.04017,0.74835"
       id="path505-0" /><path
       style="fill:#d8a017;fill-opacity:1;stroke:none;stroke-width:1.4;stroke-dasharray:none;stroke-opacity:1"
       d="m 801.59484,134.86923 7.90448,0.23386 2.38538,0.0935 1.77737,0.51449 1.1693,0.79513 2.15151,1.82411 0.0468,-1.26284 c 0,0 -0.79513,-1.63703 -1.82412,-2.1983 -1.02899,-0.56126 0,-0.46772 -1.73059,-0.8419 -1.73056,-0.37417 -3.1805,-0.37417 -4.6772,-0.37417 -1.49672,0 -7.20291,1.21607 -7.20291,1.21607 z"
       id="path506-9" /><path
       style="fill:#f79980;fill-opacity:1;stroke:none;stroke-width:1.4;stroke-dasharray:none;stroke-opacity:1"
       d="m 794.1092,127.28755 c 0,0 5.15937,-6.87917 11.04635,-10.64948 l -10.78176,-8.26823 c 0,0 -5.15939,3.77032 -0.26459,18.91771 z"
       id="path507-4" /><path
       style="fill:#d8a017;fill-opacity:1;stroke:none;stroke-width:1.4;stroke-dasharray:none;stroke-opacity:1"
       d="m 793.11701,131.9839 4.29948,-5.68854 2.24896,-2.77813 2.91042,-2.24895 3.50572,-2.64584 2.84428,-1.78593 2.97656,-1.19063 5.75469,-1.5875 4.89479,-0.46302 5.29166,1.05833 4.49792,1.52136 6.15156,3.63802 3.83646,3.10885 3.83646,4.49792 3.24114,4.29948 1.05834,2.57969 2.3151,0.33072 -2.3151,-4.29947 -4.69636,-6.41615 -4.10104,-4.29948 -4.36562,-3.10885 -6.08542,-2.77813 c 0,0 -11.37708,-4.16719 -20.24062,0 -8.86355,4.16719 -11.9724,8.06979 -11.9724,8.06979 l -5.22552,5.88698 -2.24896,3.43959 z"
       id="path508-3" /><path
       style="fill:#d8a017;fill-opacity:1;stroke:none;stroke-width:1.4;stroke-dasharray:none;stroke-opacity:1"
       d="m 791.99253,131.32244 -3.04271,-9.85573 -0.52916,-3.0427 -0.46302,-4.69636 -0.1323,-2.44739 0.0661,-3.83646 0.7276,-2.84427 1.91823,-4.10105 1.7198,-1.852076 3.43958,2.579686 5.55625,4.16719 4.10104,3.0427 3.57188,2.24896 1.85208,2.64584 0.19844,0.59531"
       id="path509-9" /><path
       style="fill:#d8a017;fill-opacity:1;stroke:none;stroke-width:1.4;stroke-dasharray:none;stroke-opacity:1"
       d="m 831.3493,113.99223 c 0.19844,-0.26458 1.12448,-1.91822 1.12448,-1.91822 l 1.85209,-1.91823 15.54427,-11.244796 c 0,0 7.27604,6.813026 4.96093,15.544276 -2.3151,8.73125 -4.29948,16.27187 -4.29948,16.27187"
       id="path510-3" /><path
       style="fill:#ffed1e;fill-opacity:1;stroke:none;stroke-width:1.4;stroke-dasharray:none;stroke-opacity:1"
       d="m 835.91337,114.65369 10.78177,8.86354 c 0,0 4.10104,-12.30312 4.16718,-14.41979 0.0661,-2.11666 -14.94895,5.55625 -14.94895,5.55625 z"
       id="path511-0" /><path
       style="fill:#ac7e13;fill-opacity:1;stroke:none;stroke-width:1.4;stroke-dasharray:none;stroke-opacity:1"
       d="m 835.91337,112.53703 c 0.92604,-0.66146 15.41197,-6.87917 15.41197,-6.87917 l 0.79375,3.50573 c 0,0 0.59532,-4.82865 -0.33073,-5.55625 -0.92604,-0.72761 -15.87499,8.92969 -15.87499,8.92969 z"
       id="path512-9" /><path
       style="fill:#ffed1e;fill-opacity:1;stroke:none;stroke-width:1.4;stroke-dasharray:none;stroke-opacity:1"
       d="m 794.43993,108.06753 11.1125,10.18646 c 0,0 -12.17084,8.92968 -12.43542,7.14375 -0.26458,-1.78594 1.32292,-17.33021 1.32292,-17.33021 z"
       id="path513-2" /><path
       style="fill:#380101;fill-opacity:1;stroke:none;stroke-width:1.4;stroke-dasharray:none;stroke-opacity:1"
       d="m 790.18241,107.84862 v 5.79975 l 2.99344,-8.41899 8.98025,6.17393 -8.79316,-8.79317 z"
       id="path514-4" /><path
       style="fill:#ac7e13;fill-opacity:1;stroke:none;stroke-width:1.4;stroke-dasharray:none;stroke-opacity:1"
       d="m 834.99015,114.25641 15.85577,-8.41899 0.74835,-2.15152 -13.37683,5.84652 c 0,0 -5.23849,3.3676 -5.0514,3.46114 0.18708,0.0936 1.82411,1.26285 1.82411,1.26285 z"
       id="path519-9" /><path
       style="fill:#ac7e13;fill-opacity:1;stroke:none;stroke-width:1.4;stroke-dasharray:none;stroke-opacity:1"
       d="m 847.6888,107.5446 c 0,0 3.76516,-1.35639 4.09258,0.0468 0.3274,1.40316 -0.11695,4.93446 -0.11695,4.93446 l 0.67821,-3.15712 -0.0233,-4.16272 -4.41997,0.91205 z"
       id="path520-3" /><path
       style="fill:#ac7e13;fill-opacity:1;stroke:none;stroke-width:1.4;stroke-dasharray:none;stroke-opacity:1"
       d="m 790.33889,113.42999 c 0,0 0.52916,4.99402 0.62838,4.63021 0.0992,-0.3638 1.28985,-10.58333 2.4474,-11.21172 1.15755,-0.62838 12.66692,8.59896 12.66692,8.59896 l 2.97657,-1.48828 -15.80886,-11.64167 c 0,0 -4.99401,4.63021 -2.91041,11.1125 z"
       id="path521-3" /><path
       style="fill:#d8a017;fill-opacity:1;stroke:none;stroke-width:1.4;stroke-dasharray:none;stroke-opacity:1"
       d="m 794.06451,125.90268 10.85115,-9.77539 1.44994,1.73058 c 0,0 -2.80633,2.29183 -2.99342,2.47892 -0.18708,0.18709 -8.46577,6.45456 -8.46577,6.45456 z"
       id="path522-1" /><path
       style="fill:#ac7e13;fill-opacity:1;stroke:none;stroke-width:1.4;stroke-dasharray:none;stroke-opacity:1"
       d="m 817.84817,153.24101 c 0.0935,-0.0234 0.70157,-0.95883 0.70157,-0.95883 h 6.2207 l 0.6782,0.93544 -3.53131,3.62485 h -0.74835 z"
       id="path523-5" /><path
       style="fill:#d28d15;fill-opacity:1;stroke:none;stroke-width:1.4;stroke-dasharray:none;stroke-opacity:1"
       d="m 795.53133,136.71333 c 0,0 -3.37343,2.21588 -3.07578,5.9862 0.29766,3.77031 0.79375,5.4901 0.79375,5.4901 0,0 3.20808,2.54661 5.68854,2.38125 2.48047,-0.16536 6.91224,0 6.91224,0 l 5.09323,-0.46302 c 0,0 4.20026,-2.64583 4.36563,-3.57188 0.16536,-0.92604 0.0661,-4.33255 0.0661,-4.33255 l -0.92604,-3.83646 c 0,0 -4.72942,-1.9513 -6.54844,-1.85208 -1.81901,0.0992 -12.36927,0.19844 -12.36927,0.19844 z"
       id="path524-5" /><path
       style="fill:#d28d15;fill-opacity:1;stroke:none;stroke-width:1.4;stroke-dasharray:none;stroke-opacity:1"
       d="m 830.73952,136.88236 c 0,0 -3.37343,2.21588 -3.07578,5.9862 0.29766,3.77031 0.79375,5.4901 0.79375,5.4901 0,0 3.20808,2.54661 5.68854,2.38125 2.48047,-0.16536 6.91224,0 6.91224,0 l 5.09323,-0.46302 c 0,0 4.20026,-2.64583 4.36563,-3.57188 0.16536,-0.92604 0.0661,-4.33255 0.0661,-4.33255 l -0.92604,-3.83646 c 0,0 -4.72942,-1.9513 -6.54844,-1.85208 -1.81901,0.0992 -12.36927,0.19844 -12.36927,0.19844 z"
       id="path524-4-5" /><path
       style="fill:#ffed1e;fill-opacity:1;stroke:none;stroke-width:1.4;stroke-dasharray:none;stroke-opacity:1"
       d="m 794.62577,146.06148 0.84191,0.5145 9.16733,-8.88672 c 0,0 -1.07574,-0.56126 -1.35638,-0.56126 -0.28062,0 -8.65286,8.93348 -8.65286,8.93348 z"
       id="path525-1" /><path
       style="fill:#ffed1e;fill-opacity:1;stroke:none;stroke-width:1.4;stroke-dasharray:none;stroke-opacity:1"
       d="m 805.664,148.77427 1.68381,0.42095 6.78196,-9.16735 -2.57246,-1.1693 z"
       id="path526-1" /><path
       style="fill:#ffed1e;fill-opacity:1;stroke:none;stroke-width:1.4;stroke-dasharray:none;stroke-opacity:1"
       d="m 831.17822,143.95674 0.14034,0.11693 6.08036,-5.77637 -0.53787,-0.0702 z"
       id="path528-0" /><path
       style="fill:#ffed1e;fill-opacity:1;stroke:none;stroke-width:1.4;stroke-dasharray:none;stroke-opacity:1"
       d="m 839.48524,147.59432 2.4474,0.85989 7.20989,-7.9375 -2.38125,-1.32291 z"
       id="path530-4" /><path
       style="fill:#ffec27;fill-opacity:1;stroke:none;stroke-width:1.4;stroke-dasharray:none;stroke-opacity:1"
       d="m 741.2302,168.67187 13.55989,-0.46302 -0.85989,-2.3151 -0.66146,-2.31511 c 0,0 -6.35,-28.575 1.05833,-42.13489 0,0 12.1752,-32.95081 37.43217,-42.118155 25.25698,-9.167344 31.4309,-6.548103 31.4309,-6.548103 l -0.18709,-12.722029 c 0,0 -40.78533,1.496709 -60.24255,23.947349 -19.45722,22.450638 -23.57317,45.088368 -23.57317,45.088368 0,0 -4.52034,21.53807 2.04287,39.58069 z"
       id="path890" /><path
       style="fill:#d58c13;fill-opacity:1;stroke:none;stroke-width:1.4;stroke-dasharray:none;stroke-opacity:1"
       d="m 854.62104,81.57066 c 0,0 -35.17268,-12.347853 -54.25573,-4.49013 -19.08304,7.857725 -51.2623,37.04356 -40.03698,103.27294 0,0 -25.81822,-50.13976 9.35445,-84.938249 35.17267,-34.798492 72.96458,-19.831399 72.96458,-19.831399 z"
       id="path891" /><path
       style="fill:#d58c13;fill-opacity:1;stroke:none;stroke-width:1.4;stroke-dasharray:none;stroke-opacity:1"
       d="m 833.85418,76.145087 c -24.32153,-5.144939 -52.19774,12.628486 -52.57191,13.657472 0,0 7.39001,-7.577089 8.13837,-7.951267 0.74835,-0.374177 6.08038,-3.367596 6.45456,-3.554684 0.37417,-0.187089 5.23848,-2.525697 5.23848,-2.525697 l 11.03823,-1.777343 12.81557,-0.467721 7.95127,1.496709 z"
       id="path892" /><path
       style="fill:#ffec27;fill-opacity:1;stroke:none;stroke-width:1.4;stroke-dasharray:none;stroke-opacity:1"
       d="m 822.9203,72.297395 3.83646,0.264583 -3.37344,-12.567708 -0.59531,0.198438 z"
       id="path894" /><path
       style="fill:#ffec27;fill-opacity:1;stroke:none;stroke-width:1.4;stroke-dasharray:none;stroke-opacity:1"
       d="m 741.36249,168.73802 13.49375,-0.39688 -3.9026,-13.03073 c 0,0 -0.52917,-10.78177 -0.59532,-11.44322 -0.0661,-0.66146 0.46302,-16.99948 0.46302,-16.99948 l 2.4474,-3.175 -1.38906,6.61458 -0.46302,5.09323 -0.0661,11.44323 1.38906,9.525 c 0,0 4.29948,15.21354 4.0349,15.27969 -0.26458,0.0661 -15.47813,-2.11667 -15.47813,-2.11667 z"
       id="path895" /><path
       style="fill:#ffec27;fill-opacity:1;stroke:none;stroke-width:1.4;stroke-dasharray:none;stroke-opacity:1"
       d="m 751.44163,161.55106 c 0.3274,-0.0468 1.77734,-0.0468 1.77734,-0.0468 l 2.19829,7.57709 -13.79778,0.23386 -0.14033,-1.1693 z"
       id="path896" /><path
       style="fill:#bb7712;fill-opacity:1;stroke:none;stroke-width:1.4;stroke-dasharray:none;stroke-opacity:1"
       d="m 793.44302,210.10057 c -12.34784,-3.64823 -34.3307,-37.69836 -34.4243,-38.35318 l -3.08695,-0.28063 3.46114,6.92229 c 0,0 19.92489,28.34392 34.05011,31.71152 z"
       id="path897" /><path
       style="fill:#bb7712;fill-opacity:1;stroke:none;stroke-width:1.4;stroke-dasharray:none;stroke-opacity:1"
       d="m 756.21239,171.84094 4.44336,9.02703 c 0,0 3.5079,5.75297 3.69498,5.79975 0.18712,0.0468 4.77079,6.17392 4.77079,6.17392 l 5.70618,5.75298 c 0,0 7.90451,5.7062 8.0916,5.75298 0.18708,0.0468 -1.40317,-1.54349 -1.44995,-1.91766 -0.0468,-0.37418 -11.64627,-13.14298 -11.64627,-13.14298 z"
       id="path898" /></g></svg>
