<?xml version="1.0" standalone="no"?>
<!DOCTYPE svg PUBLIC "-//W3C//DTD SVG 20010904//EN"
 "http://www.w3.org/TR/2001/REC-SVG-20010904/DTD/svg10.dtd">
<svg version="1.0" xmlns="http://www.w3.org/2000/svg"
 width="512.000000pt" height="512.000000pt" viewBox="0 0 512.000000 512.000000"
 preserveAspectRatio="xMidYMid meet">

<g transform="translate(0.000000,512.000000) scale(0.100000,-0.100000)"
fill="#000000" stroke="none">
<path d="M3693 4850 c-389 -6 -376 -3 -421 -93 -30 -59 -23 -113 20 -163 46
-52 63 -58 192 -64 l120 -5 -410 -343 -409 -343 -175 180 c-143 147 -182 182
-215 191 -83 24 -72 32 -789 -565 -391 -326 -671 -567 -681 -584 -23 -45 -20
-121 8 -161 49 -73 152 -92 224 -42 36 24 205 164 953 786 l235 195 180 -184
c157 -161 185 -185 218 -191 79 -14 92 -4 628 442 280 233 511 424 514 424 3
0 5 -66 5 -147 0 -122 4 -155 19 -189 45 -100 160 -129 245 -63 53 42 54 46
56 434 1 198 2 368 1 377 -2 34 -69 95 -116 107 -24 6 -47 10 -52 9 -4 -1
-162 -5 -350 -8z"/>
<path d="M3552 3553 c-18 -9 -43 -30 -55 -47 l-22 -31 -3 -1336 -2 -1336 22
-34 c13 -19 43 -44 68 -57 l45 -23 460 3 c443 3 461 4 495 24 19 11 45 38 57
60 l23 39 -3 1327 -2 1327 -21 28 c-11 15 -36 38 -54 51 l-33 22 -471 0 c-413
0 -475 -2 -504 -17z"/>
<path d="M2056 2697 c-22 -12 -49 -38 -60 -57 -21 -34 -21 -48 -24 -900 -2
-476 0 -884 3 -908 8 -55 62 -117 113 -132 49 -13 895 -13 944 0 51 15 105 77
113 132 3 24 5 432 3 908 -3 852 -3 866 -24 900 -11 19 -38 45 -60 57 -39 23
-41 23 -504 23 -463 0 -465 0 -504 -23z"/>
<path d="M575 2066 c-37 -17 -70 -52 -84 -89 -7 -19 -11 -218 -11 -595 l0
-567 23 -39 c12 -22 38 -49 57 -60 34 -20 52 -21 495 -24 l460 -3 45 23 c25
13 55 38 67 57 l23 34 0 582 0 582 -22 33 c-13 18 -36 43 -51 54 -28 21 -39
21 -500 23 -378 2 -478 0 -502 -11z"/>
<path d="M360 568 c-66 -34 -93 -79 -88 -149 5 -65 32 -109 82 -133 31 -15
223 -16 2206 -16 1983 0 2175 1 2206 16 50 24 77 68 82 133 5 70 -22 115 -88
149 l-44 22 -2156 0 -2156 0 -44 -22z"/>
</g>
</svg>
