<?xml version="1.0" encoding="UTF-8" standalone="no"?>
<!-- Created with Inkscape (http://www.inkscape.org/) -->

<svg
   width="189.48387mm"
   height="294.51614mm"
   viewBox="0 0 189.48387 294.51614"
   version="1.1"
   id="svg1"
   xml:space="preserve"
   xmlns:inkscape="http://www.inkscape.org/namespaces/inkscape"
   xmlns:sodipodi="http://sodipodi.sourceforge.net/DTD/sodipodi-0.dtd"
   xmlns="http://www.w3.org/2000/svg"
   xmlns:svg="http://www.w3.org/2000/svg"><sodipodi:namedview
     id="namedview1"
     pagecolor="#ffffff"
     bordercolor="#000000"
     borderopacity="0.25"
     inkscape:showpageshadow="2"
     inkscape:pageopacity="0.0"
     inkscape:pagecheckerboard="0"
     inkscape:deskcolor="#d1d1d1"
     inkscape:document-units="mm" /><defs
     id="defs1" /><g
     inkscape:groupmode="layer"
     id="layer3"
     inkscape:label="Boceto logo2"
     transform="translate(-251.22581,-4.2580646)"><path
       style="fill:#781d1a;fill-opacity:1;stroke:none;stroke-width:1.4;stroke-dasharray:none;stroke-opacity:1"
       d="m 311.23975,109.03398 2.18282,3.30729 1.98437,5.35781 2.51354,5.6224 1.91823,2.57968 0.79375,-2.18281 2.24896,-4.96093 2.18281,-4.43178 -3.43958,-2.05052 -5.22552,-3.57187 -4.96094,-2.05052 z"
       id="path368-2" /><path
       style="fill:#955856;fill-opacity:1;stroke:none;stroke-width:1.4;stroke-dasharray:none;stroke-opacity:1"
       d="m 313.23993,114.07306 0.28063,2.89987 0.51449,3.3676 0.8419,2.33861 1.02899,6.68842 0.74835,1.87088 1.16931,0.37418 1.44994,-4.06918 -1.6838,-3.41436 c 0,0 -1.30962,-4.77077 -1.40317,-5.00463 -0.0935,-0.23386 -2.94664,-5.05139 -2.94664,-5.05139 z"
       id="path369-3" /><path
       style="fill:#ffffff;fill-opacity:1;stroke:none;stroke-width:1.4;stroke-dasharray:none;stroke-opacity:1"
       d="m 312.91252,111.828 -0.60804,-1.49671 -0.70158,-0.98222 -0.37417,3.22728 0.3274,4.63044 -0.0468,2.66602 0.46772,1.77734 2.10475,5.79975 1.77734,1.77734 0.0935,-2.24506 -0.74836,-4.49013 -1.07576,-2.57247 c 0,0 -0.51449,-5.84652 -0.60804,-6.03361 -0.0935,-0.18709 -0.60803,-2.05797 -0.60803,-2.05797 z"
       id="path370-4" /><path
       style="fill:#0e7323;fill-opacity:1;stroke:none;stroke-width:1.4;stroke-dasharray:none;stroke-opacity:1"
       d="m 314.21632,129.20846 4.10104,5.02708 1.12448,2.05052 -4.96094,0.99219 -3.30729,0.26458 -1.65365,-1.45521 c 0,0 1.32292,-3.24114 1.38907,-3.50573 0.0662,-0.26458 1.71979,-2.91041 1.71979,-2.91041 l 0.99218,-1.19063 1.05834,0.99219 z"
       id="path371-7" /><path
       style="fill:#0e7323;fill-opacity:1;stroke:none;stroke-width:1.4;stroke-dasharray:none;stroke-opacity:1"
       d="m 313.05284,140.49934 10.38342,-2.89988 8.2319,-4.20949 4.58367,-2.80633 7.76418,-3.18051 4.58367,-1.96443 c 0,0 7.39001,-6.64165 7.67064,-7.10937 0.28063,-0.46772 2.89987,-3.3676 3.36759,-3.74177 0.46773,-0.37418 8.419,-4.39659 8.419,-4.39659 l -3.92887,3.46114 -2.99341,4.58367 -2.99342,4.95785 -6.45456,3.46114 -7.39,4.49013 -6.7352,2.61924 -2.15152,1.30962 -6.26747,2.99342 -8.04481,2.5257 -2.99342,0.74835 -4.8643,-0.18709 z"
       id="path372-4" /><path
       style="fill:#5bcc23;fill-opacity:1;stroke:none;stroke-width:1.4;stroke-dasharray:none;stroke-opacity:1"
       d="m 333.16487,132.73516 10.57051,-8.32545 10.10279,-7.48355 10.66405,-7.01582 2.5257,-0.93545 1.21608,1.49671 -2.61925,1.49671 -6.26747,2.99342 -3.36759,3.92886 -7.10937,6.54811 z"
       id="path373-3" /><path
       style="fill:#ffffff;fill-opacity:1;stroke:none;stroke-width:1.4;stroke-dasharray:none;stroke-opacity:1"
       d="m 311.90121,125.93424 c 0.0992,0.39687 1.71979,2.87734 1.71979,2.87734 0,0 -1.9513,2.11667 -2.01744,2.57969 -0.0661,0.46302 -1.98438,4.53099 -1.98438,4.53099 l 1.5875,1.55442 0.3638,0.76068 2.84427,0.0331 c 0,0 7.67292,-2.97656 8.13594,-3.04271 0.46302,-0.0661 6.81302,-3.34036 6.81302,-3.34036 l 7.97058,-6.54844 5.1263,-4.16718 12.27005,-7.70599 c 0,0 2.74505,-1.05834 2.91042,-1.19063 0.16536,-0.13229 3.73724,-1.71979 3.86953,-1.78594 0.13229,-0.0661 2.6789,-0.29765 2.6789,-0.29765 l -3.80338,2.44739 -6.15156,4.00183 -6.51537,4.82864 -13.32838,10.25261 -10.84792,5.88698 -10.94713,3.0427 -3.37344,-0.7276 -1.68672,-1.12448 c 0,0 -0.39688,-2.94349 -0.39688,-3.34036 0,-0.39688 0.23151,-2.34818 0.46302,-2.94349 0.23152,-0.59532 2.18282,-4.36563 2.54662,-4.79558 0.3638,-0.42994 1.75286,-1.78593 1.75286,-1.78593 z"
       id="path374-3" /><path
       style="fill:#ffffff;fill-opacity:1;stroke:none;stroke-width:1.4;stroke-dasharray:none;stroke-opacity:1"
       d="m 321.37828,134.23186 3.74178,-11.88013 3.74177,-7.48354 4.02241,-5.05139 8.04481,-6.36102 4.8643,-1.96443 2.61925,-3.180506 -5.61267,1.403165 -13.00266,8.138351 -5.79975,8.69963 -3.36759,8.13835 -1.21608,8.79317 -0.0936,1.77734 2.43216,-0.37418 z"
       id="path375-4" /><path
       style="fill:#ffffff;fill-opacity:1;stroke:none;stroke-width:1.4;stroke-dasharray:none;stroke-opacity:1"
       d="m 337.18728,112.06186 -5.14494,10.28987 6.50133,-8.46576 c 0,0 7.34323,-8.32544 7.48355,-8.51253 0.14031,-0.18709 6.73519,-6.875506 6.73519,-6.875506 l 1.35639,-0.748356 3.22728,3.975632 -0.23386,-2.432151 -1.87089,-2.712786 -1.82411,-1.075759 -3.55469,1.403165 c 0,0 -2.38538,2.478924 -2.5257,2.666013 -0.14031,0.18709 -5.37879,5.940058 -5.37879,5.940058 z"
       id="path376-8" /><path
       style="fill:#ffffff;fill-opacity:1;stroke:none;stroke-width:1.4;stroke-dasharray:none;stroke-opacity:1"
       d="m 366.27956,97.422172 c -0.37417,0.327406 -7.43677,7.717408 -7.43677,7.717408 l 15.99608,-10.196331 5.05139,-1.403165 8.60608,-2.198293 3.83532,0.233859 -4.5369,-1.96443 -21.28134,5.986838 z"
       id="path377-5" /><path
       style="fill:#ffffff;fill-opacity:1;stroke:none;stroke-width:1.4;stroke-dasharray:none;stroke-opacity:1"
       d="m 378.01397,92.596741 c 0.59532,-0.165365 5.09323,-1.289844 5.09323,-1.289844 l 0.19844,-0.562239 c 0,0 -4.10104,-0.06615 -4.26641,0.23151 -0.16536,0.297656 -1.02526,1.620573 -1.02526,1.620573 z"
       id="path378-1" /><path
       style="fill:#5bcc23;fill-opacity:1;stroke:none;stroke-width:1.4;stroke-dasharray:none;stroke-opacity:1"
       d="m 332.32297,121.97756 -1.49671,4.0224 6.92228,-3.74177 8.04481,-6.08038 c 0,0 4.95785,-4.58367 5.23849,-4.95785 0.28063,-0.37418 2.61924,-5.61266 2.61924,-5.61266 l 0.65481,-7.670635 -1.87089,0.467722 -7.95127,8.886713 z"
       id="path379-3" /><path
       style="fill:#5bcc23;fill-opacity:1;stroke:none;stroke-width:1.4;stroke-dasharray:none;stroke-opacity:1"
       d="m 333.79548,120.14648 6.15157,-8.00365 4.92786,-5.19245 -3.83646,6.38308 z"
       id="path380-0" /><path
       style="fill:#0e7323;fill-opacity:1;stroke:none;stroke-width:1.4;stroke-dasharray:none;stroke-opacity:1"
       d="m 341.20968,103.29208 c -0.3274,0.28063 -8.2319,6.45455 -8.2319,6.45455 l -4.18611,5.16833 -1.42655,2.87649 -2.47892,4.67721 -3.64823,11.88013 0.8419,0.0468 c 0,0 1.80072,-0.0468 1.91765,-0.18709 0.11693,-0.14031 10.21972,-6.24408 10.21972,-6.24408 l 12.23093,-9.51814 7.85252,-10.40446 4.43177,-6.28386 -1.66701,-0.39521 -2.97146,-3.614876 -0.7028,0.438216 0.87643,0.06615 -0.75686,7.82281 -2.99342,5.75298 -8.13835,6.78196 -5.19171,3.88209 -6.26748,3.3676 1.3564,-4.11596 4.77076,-9.16734 4.95785,-7.90449 z"
       id="path381-2" /><path
       style="fill:#be0015;fill-opacity:1;stroke:none;stroke-width:1.4;stroke-dasharray:none;stroke-opacity:1"
       d="m 356.08663,112.60585 c 0,0 2.64583,-0.59531 3.37344,-0.79375 0.7276,-0.19844 3.83646,-1.98437 4.89479,-2.11666 1.05833,-0.1323 1.5875,-0.79375 4.29948,-1.45521 2.71198,-0.66146 5.55625,-2.24896 7.34219,-2.97657 1.78593,-0.7276 6.2177,-2.64583 6.41614,-2.91041 0.19844,-0.26458 0.33073,-2.910415 1.05833,-3.108853 0.72761,-0.198437 2.77813,-0.595312 2.77813,-0.595312 l 8.79739,-5.159375 c 0,0 2.31511,-1.918229 1.98438,-1.984375 -0.33073,-0.06615 -5.95313,-0.727604 -5.95313,-0.727604 l 0.99219,0.926041 -7.01146,1.719792 -6.01927,2.050521 -10.58333,5.754685 -11.37708,8.26823 z"
       id="path382-2" /><path
       style="fill:#f14b3f;fill-opacity:1;stroke:none;stroke-width:1.4;stroke-dasharray:none;stroke-opacity:1"
       d="m 350.1335,115.64856 c 0,0 4.0349,-0.66146 4.16719,-0.92604 0.13229,-0.26458 1.52136,-3.30729 1.52136,-3.30729 l 2.77812,-3.04271 6.41615,-4.89479 7.01146,-4.034895 6.68072,-3.241146 0.72761,-1.124479 1.91823,-0.595313 4.29948,-1.058333 6.87916,-1.719792 h -6.01927 l -12.10468,3.307292 -15.74271,10.252596 7.9375,-7.739054 -6.61459,4.431774 -7.27604,9.06197 z"
       id="path383-4" /><path
       style="fill:#692432;fill-opacity:1;stroke:none;stroke-width:1.4;stroke-dasharray:none;stroke-opacity:1"
       d="m 324.79265,154.39067 1.82412,-0.79513 5.89329,-0.42095 0.88867,1.07576 -0.32741,1.07576 c 0,0 -5.89329,0.74836 -6.17392,0.74836 -0.28063,0 -2.38538,-0.32741 -2.38538,-0.32741 l 0.23386,-1.07576 z"
       id="path384-9" /><path
       style="fill:#fafef2;fill-opacity:1;stroke:none;stroke-width:1.4;stroke-dasharray:none;stroke-opacity:1"
       d="m 322.92176,157.0333 1.73058,1.28623 c 0,0 0.95882,0.14032 1.05237,-0.0468 0.0935,-0.18709 -0.77174,-2.19829 -0.77174,-2.19829 l 0.0702,-1.73057 2.33861,-0.77174 5.07478,-0.1637 -0.23386,-1.00561 c 0,0 -2.22168,-1.12253 -2.57247,-1.1693 -0.35079,-0.0468 -3.62485,0.32741 -4.04579,0.35079 -0.42095,0.0234 -2.5257,0.79513 -2.73617,1.09915 -0.21048,0.30402 -0.39757,3.74177 -0.30402,3.83532 0.0935,0.0935 0.39756,0.51449 0.39756,0.51449 z"
       id="path385-7" /><path
       style="fill:#fafef2;fill-opacity:1;stroke:none;stroke-width:1.4;stroke-dasharray:none;stroke-opacity:1"
       d="m 325.96196,144.05402 2.38538,0.51449 0.60803,-2.19829 -1.4967,-1.63702 -3.64823,0.70158 -0.18709,2.29183 0.0935,2.10475 0.88867,1.6838 0.60219,0.65481 0.15786,0.12278 0.71912,0.22801 0.14032,0.15201 0.85359,-0.14616 0.0526,-0.34495 -0.19841,-1.06422 z"
       id="path386-6" /><path
       style="fill:#fafef2;fill-opacity:1;stroke:none;stroke-width:1.4;stroke-dasharray:none;stroke-opacity:1"
       d="m 346.93927,146.24062 6.03361,0.58465 -3.54299,-7.09768 -2.33861,4.58368 z"
       id="path387-0" /><path
       style="fill:#fafef2;fill-opacity:1;stroke:none;stroke-width:1.4;stroke-dasharray:none;stroke-opacity:1"
       d="m 352.18945,138.58167 c 0.0117,0.28064 -0.18709,3.15713 -0.0468,3.18051 0.14032,0.0234 4.13933,-0.18709 4.13933,-0.18709 0,0 0.45603,-2.18659 0.40926,-2.24506 -0.0468,-0.0585 -1.47332,-0.86529 -1.57856,-0.88867 -0.10524,-0.0234 -2.92326,0.14031 -2.92326,0.14031 z"
       id="path388-6" /><path
       style="fill:#fafef2;fill-opacity:1;stroke:none;stroke-width:1.4;stroke-dasharray:none;stroke-opacity:1"
       d="m 313.49717,154.71807 c 0,0 -5.77636,-1.91766 -5.63604,-1.63702 0.14031,0.28063 8.5593,7.50693 8.5593,7.50693 0,0 -2.61924,0.0234 -2.47892,0.0935 0.14032,0.0702 4.93446,4.74738 4.93446,4.74738 l 8.43722,4.26081 5.82084,1.5875 8.86354,1.25677 12.7,-2.24896 -12.83229,1.52135 -3.77032,-0.19843 -15.7427,-6.94532 -3.77032,-3.24115 2.4474,-0.66145 -6.61458,-4.43177 1.78593,-0.66146 z"
       id="path389-6" /><path
       style="fill:#fafef2;fill-opacity:1;stroke:none;stroke-width:1.4;stroke-dasharray:none;stroke-opacity:1"
       d="m 309.28768,151.35048 c 0,0 3.55468,1.77734 3.78854,1.75395 0.23387,-0.0234 1.96444,-0.56126 1.96444,-0.56126 l 3.34421,-2.50231 2.57246,-3.85871 0.77174,-4.13933 -0.0935,-0.56127 -1.77734,-0.11693 c 0,0 -0.86528,0.77174 -0.88867,1.09915 -0.0234,0.3274 -1.28623,4.09256 -1.28623,4.09256 l -2.29184,2.66601 -2.87649,1.23947 -2.87649,0.3274 z"
       id="path390-5" /><path
       style="fill:#fafef2;fill-opacity:1;stroke:none;stroke-width:1.4;stroke-dasharray:none;stroke-opacity:1"
       d="m 327.29496,151.39725 c 0.5145,-0.0234 6.47795,-1.47332 6.47795,-1.47332 l 6.45456,-2.99342 -5.96345,-0.60804 -4.46675,0.88867 -3.20389,3.25067 -0.0935,0.79512 z"
       id="path391-8" /><path
       style="fill:#fafef2;fill-opacity:1;stroke:none;stroke-width:1.4;stroke-dasharray:none;stroke-opacity:1"
       d="m 375.35336,111.59414 -3.13373,8.88671 -2.71279,2.24506 -0.46772,5.00462 4.02241,-2.57247 -1.30962,5.23849 4.67721,-5.23849 0.0936,-9.63506 z"
       id="path392-8" /><path
       style="fill:#fafef2;fill-opacity:1;stroke:none;stroke-width:1.4;stroke-dasharray:none;stroke-opacity:1"
       d="m 362.16361,117.48743 c 0,0.23386 -0.42095,2.8531 -0.42095,2.8531 l 8.13836,-7.71741 5.56589,-3.78854 -0.60804,-1.82412 c 0,0 -7.99804,5.42557 -8.37222,5.61266 -0.37417,0.18709 -4.30304,4.86431 -4.30304,4.86431 z"
       id="path393-4" /><path
       style="fill:#c12913;fill-opacity:1;stroke:none;stroke-width:1.4;stroke-dasharray:none;stroke-opacity:1"
       d="m 310.61137,152.62408 3.07578,2.28203 2.51354,0.82683 5.45703,-0.79376 2.4474,-3.67109 2.57969,-2.38125 -0.57671,-0.33073 -0.76688,-0.28318 -0.85259,-0.89224 -1.14419,-3.12406 0.82682,-2.84427 -0.3638,-0.85989 c 0,0 -2.44739,0.29765 -2.34817,0.46302 0.0992,0.16536 0.25224,1.19687 0.25224,1.19687 l -0.79512,4.01657 -2.56662,3.82946 -3.3676,2.49062 -1.98782,0.54373 -2.56077,-1.19854 z"
       id="path394-6" /><path
       style="fill:#c12913;fill-opacity:1;stroke:none;stroke-width:1.4;stroke-dasharray:none;stroke-opacity:1"
       d="m 330.68594,147.01236 1.55518,-0.26894 c 0,0 0.95905,-4.63653 3.07572,-6.2571 2.11667,-1.62057 9.1612,-6.7138 9.1612,-6.7138 l 5.19244,-4.59714 c 0,0 0.42995,-0.39687 0.29766,-0.39687 -0.13229,0 -22.225,10.31875 -22.225,10.31875 0,0 1.19062,1.48828 1.38906,1.88515 0.19844,0.39688 1.55374,6.02995 1.55374,6.02995 z"
       id="path395-0" /><path
       style="fill:#c12913;fill-opacity:1;stroke:none;stroke-width:1.4;stroke-dasharray:none;stroke-opacity:1"
       d="m 369.54731,121.80012 -0.39688,5.92006 2.67891,-1.7198 c 0,0 0.0331,0.62839 -0.26459,1.09141 -0.29765,0.46302 -2.01744,2.24896 -2.01744,2.24896 l -4.13412,1.78594 c 0,0 -1.02526,-0.1323 -0.99219,-0.52917 0.0331,-0.39688 0.39688,-3.34037 0.62839,-3.9026 0.23151,-0.56224 0.7276,-2.97657 1.15755,-3.3073 0.42995,-0.33073 3.34037,-1.5875 3.34037,-1.5875 z"
       id="path396-9" /><path
       style="fill:#c12913;fill-opacity:1;stroke:none;stroke-width:1.4;stroke-dasharray:none;stroke-opacity:1"
       d="m 367.03376,133.40872 c 0.82683,0.92604 2.38125,4.43177 2.38125,4.43177 0,0 2.0836,-1.19063 2.57969,-1.52136 0.4961,-0.33073 3.57188,-4.39869 3.6711,-4.56406 0.0992,-0.16536 0.69453,-6.68073 0.69453,-6.68073 l -5.6224,6.08542 z"
       id="path397-2" /><path
       style="fill:#fc850e;fill-opacity:1;stroke:none;stroke-width:1.4;stroke-dasharray:none;stroke-opacity:1"
       d="m 329.89082,150.92953 4.11595,-1.26285 5.98683,-2.66601 -5.56588,-0.56127 -2.33861,0.46772 1.0056,-3.48453 c 0,0 0.72497,-2.26845 2.47893,-3.41436 1.75395,-1.14592 7.60047,-5.26187 7.60047,-5.26187 l 5.65944,3.15712 -2.12814,8.2319 6.53695,0.6844 0.76068,1.93477 c 0,0 -5.26304,1.33308 -7.08715,2.87656 -1.82412,1.54348 -6.08039,3.04019 -6.08039,3.04019 0,0 -2.71278,1.44994 -6.03361,0.88867 -3.32082,-0.56126 -0.60803,-1.26285 -0.60803,-1.26285 l -2.24507,-2.24506 z"
       id="path398-3" /><path
       style="fill:#fc850e;fill-opacity:1;stroke:none;stroke-width:1.4;stroke-dasharray:none;stroke-opacity:1"
       d="m 353.63923,148.78762 c 0,0 5.35782,-1.88515 12.73308,1.25677 7.37526,3.14193 10.02109,1.78594 10.02109,1.78594 l 5.58932,-2.21588 -1.5875,-0.46303 0.36381,-2.54661 c 0,0 -6.38308,-3.24115 -6.81303,-3.93568 -0.42994,-0.69453 -4.20026,-4.79557 -4.20026,-4.79557 l -11.27786,1.2237 -5.42396,7.97057 z"
       id="path399-2" /><path
       style="fill:#fc850e;fill-opacity:1;stroke:none;stroke-width:1.4;stroke-dasharray:none;stroke-opacity:1"
       d="m 342.65903,135.12851 c 0.13229,0 5.52317,3.20807 5.78776,3.20807 0.26458,0 8.83046,-0.0992 8.83046,-0.0992 l 1.91823,0.92604 10.84792,-1.35599 c 0,0 -2.3151,-4.2664 -2.97656,-4.59713 -0.66146,-0.33073 -3.27422,-2.87735 -3.27422,-2.87735 l -5.32474,-5.72161 c 0,0 -2.28203,-0.46302 -2.67891,-0.19844 -0.39687,0.26459 -6.18463,4.53099 -6.18463,4.53099 z"
       id="path400-1" /><path
       style="fill:#fc850e;fill-opacity:1;stroke:none;stroke-width:1.4;stroke-dasharray:none;stroke-opacity:1"
       d="m 375.46736,111.21679 c -0.66146,0.26458 -4.36563,2.24896 -4.36563,2.24896 l -4.29948,8.6651 0.1323,0.66146 2.64583,-1.19062 -0.26458,1.4552 3.30729,-2.38125 z"
       id="path401-8" /><path
       style="fill:#fc850e;fill-opacity:1;stroke:none;stroke-width:1.4;stroke-dasharray:none;stroke-opacity:1"
       d="m 362.50278,117.30221 c 0,0.39687 -0.46303,3.24114 -0.46303,3.24114 l 6.4823,-7.14375 2.44739,-1.98437 4.23334,-2.71198 0.59531,2.3151 -4.43177,2.18281 c 0,0 -3.83646,6.68073 -4.0349,6.94532 -0.19844,0.26458 -2.24896,6.41614 -2.24896,6.41614 l -1.98437,5.02709 -5.88698,-5.6224 4.43177,-8.53281 z"
       id="path402-3" /><path
       style="fill:#fc850e;fill-opacity:1;stroke:none;stroke-width:1.4;stroke-dasharray:none;stroke-opacity:1"
       d="m 361.98822,120.01312 c 0.11693,-0.0701 3.70669,-3.33251 3.70669,-3.33251 l -3.80024,4.32642 z"
       id="path403-1" /><path
       style="fill:#fc850e;fill-opacity:1;stroke:none;stroke-width:1.4;stroke-dasharray:none;stroke-opacity:1"
       d="m 367.77627,133.95123 3.92886,-1.35639 1.91766,-2.57247 -0.46772,3.18051 -4.39658,3.13373 z"
       id="path404-8" /><path
       style="fill:#fc850e;fill-opacity:1;stroke:none;stroke-width:1.4;stroke-dasharray:none;stroke-opacity:1"
       d="m 367.68273,126.51446 -0.79513,0.56126 0.74836,0.5145 z"
       id="path405-2" /><path
       style="fill:#c68e6a;fill-opacity:1;stroke:none;stroke-width:1.4;stroke-dasharray:none;stroke-opacity:1"
       d="m 332.2762,159.30175 c 0,0 5.09816,2.75955 9.77538,1.44993 4.67722,-1.30962 4.2095,-0.93544 4.2095,-0.93544 l -6.7352,2.89988 c 0,0 -4.91107,0.51449 -5.33202,0.51449 -0.42095,0 -4.2095,0 -4.2095,0 0,0 -3.92886,-2.29184 -3.50791,-3.22728 0.42095,-0.93545 5.79975,-0.70158 5.79975,-0.70158 z"
       id="path414-3" /><path
       style="fill:#c68e6a;fill-opacity:1;stroke:none;stroke-width:1.4;stroke-dasharray:none;stroke-opacity:1"
       d="m 316.04625,155.65352 c -0.23385,0.0468 -1.73056,0.74835 -1.73056,0.74835 l 6.64164,4.34981 -2.43215,0.60804 4.11595,3.22728 16.27672,7.48355 10.38342,-0.65481 c 0,0 14.49937,-4.25627 14.92032,-4.49013 0.42095,-0.23386 5.75297,-2.57247 5.98684,-2.71279 0.23386,-0.14031 5.19171,-4.95785 5.33202,-5.19171 0.14032,-0.23386 0.18709,-1.44994 -0.0935,-1.35639 -0.28063,0.0935 -4.34981,1.63703 -4.06918,1.35639 0.28063,-0.28063 7.99804,-6.2207 8.2319,-6.36101 0.23386,-0.14032 2.61924,-3.18051 2.61924,-3.18051 0,0 -7.01582,4.39658 -7.53032,4.58367 -0.51449,0.18709 -5.84652,4.02241 -6.03361,4.06918 -0.18708,0.0468 -8.79316,5.47235 -8.79316,5.47235 l -11.69305,4.11595 -6.26747,1.07576 -1.87088,0.0468 c 0,0 -1.26285,-0.42095 -1.26285,-0.79513 0,-0.37417 -2.0112,-2.47892 -1.87089,-2.66601 0.14032,-0.18709 -0.65481,-1.21608 -0.65481,-1.21608 l -9.12057,-0.98221 c 0,0 -2.05797,-1.40317 -2.38538,-2.15152 -0.32741,-0.74836 -2.38538,-3.41437 -2.38538,-3.74178 0,-0.3274 -0.32741,-2.52569 -0.32741,-2.52569 z"
       id="path415-0" /><path
       style="fill:#f6eeca;fill-opacity:1;stroke:none;stroke-width:1.4;stroke-dasharray:none;stroke-opacity:1"
       d="m 334.61481,155.46643 -2.5257,3.695 c 0,0 7.57709,3.55469 12.39463,1.59025 4.81753,-1.96443 2.38538,-0.3274 2.38538,-0.3274 0,0 -3.08697,2.66601 -5.14494,3.13374 -2.05798,0.46772 -5.56589,0.79512 -5.56589,0.79512 0,0 1.40316,5.47234 5.47234,4.67722 4.06918,-0.79513 8.55931,-1.40317 8.55931,-1.40317 l 10.19633,-3.78854 10.99146,-7.24969 10.28988,-6.68842 0.0468,-0.42095 -0.6577,0.49866 -4.82864,1.90996 c 0,0 -1.50482,0.40514 -3.06752,0.14056 -1.56269,-0.26458 -5.85197,-1.61374 -5.85197,-1.61374 0,0 -4.41997,-2.36199 -8.67623,-2.19829 -4.25627,0.1637 -5.12156,0.56127 -5.12156,0.56127 0,0 -5.40218,1.77734 -6.29085,2.54908 -0.88868,0.77174 -1.05238,0.77174 -1.05238,0.77174 0,0 -5.33203,3.04019 -7.71741,3.3676 -2.38538,0.3274 -3.83531,0 -3.83531,0 z"
       id="path416-3" /><path
       style="fill:#f6eeca;fill-opacity:1;stroke:none;stroke-width:1.4;stroke-dasharray:none;stroke-opacity:1"
       d="m 324.19631,158.78725 c 0.31571,0.12862 2.32691,1.02899 2.32691,1.02899 l 3.05188,3.1922 c 0,0 -2.26844,-0.37417 -2.39707,-0.44433 -0.12862,-0.0702 -2.40876,-1.0173 -2.44384,-1.37978 -0.0351,-0.36249 -0.53788,-2.39708 -0.53788,-2.39708 z"
       id="path417-7" /><path
       style="fill:#f6eeca;fill-opacity:1;stroke:none;stroke-width:1.4;stroke-dasharray:none;stroke-opacity:1"
       d="m 375.30199,111.77903 c -0.13229,0.33073 -2.74505,8.92969 -2.74505,8.92969 l -3.20807,2.18281 -0.26458,4.92786 3.80338,-3.40651 -1.12448,5.65547 4.66328,-4.92786 c 0,0 -0.26458,-11.9724 -0.19843,-12.10469 0.0661,-0.13229 -0.92605,-1.25677 -0.92605,-1.25677 z"
       id="path418-9" /><path
       style="display:inline;fill:#000000;fill-opacity:1;stroke:none;stroke-width:1.4;stroke-dasharray:none;stroke-opacity:1"
       d="m 334.78767,173.65846 c 0,0 8.20208,2.97656 17.52865,-0.72761 9.32656,-3.70416 10.58333,-3.9026 10.58333,-3.9026 l -0.8599,-2.05052 -7.9375,2.64583 -6.81302,1.52136 -4.7625,0.46302 -4.6302,-0.13229 -2.91042,-0.59532 -0.72761,2.24896 z"
       id="path182-4" /><path
       style="display:inline;fill:#000000;fill-opacity:1;stroke:none;stroke-width:1.4;stroke-dasharray:none;stroke-opacity:1"
       d="m 361.78943,167.06593 5.79975,-2.24507 5.33203,-3.55468 1.87089,-2.5257 -5.42557,1.21608 10.38342,-8.13836 1.68379,-2.33861 -5.7062,1.02899 4.67722,-3.3676 -7.01583,-3.46114 -4.30304,-6.08038 4.2095,0.46772 0.93544,2.71279 2.80633,2.80633 4.02241,1.21607 2.99342,-0.18708 c 0,0 -2.33861,2.61924 -1.96443,2.61924 0.37417,0 2.05797,0.0935 2.05797,0.0935 l -1.02899,3.55468 -2.99341,3.74178 -2.99342,2.43215 1.68379,0.56127 -0.37417,0.93544 -3.3676,3.74178 c 0,0 -2.80633,2.15151 -3.27405,2.52569 -0.46772,0.37418 -4.30304,2.5257 -4.30304,2.5257 l -5.05139,1.96443 z"
       id="path219-5" /><path
       style="display:inline;fill:#000000;fill-opacity:1;stroke:none;stroke-width:1.4;stroke-dasharray:none;stroke-opacity:1"
       d="m 375.16628,111.87477 c 0,0 -2.5257,1.59025 -2.89988,1.6838 -0.37418,0.0935 -3.55468,5.7062 -3.55468,5.7062 l -1.40317,3.08696 3.83532,-1.30962 -3.92886,2.33861 -1.59026,2.43215 c 0,0 -0.56126,5.23849 -0.18709,4.95785 0.37418,-0.28063 4.49013,-1.96443 5.0514,-2.71278 0.56126,-0.74836 1.49671,-2.15152 0.93544,-1.6838 -0.56126,0.46772 -3.1805,2.24506 -2.80633,1.87089 0.37418,-0.37418 4.58368,-4.49013 4.58368,-4.49013 l 0.46771,1.02899 -1.87088,5.42557 -1.59025,1.6838 c 0,0 -3.64823,2.15151 -3.83532,1.59025 -0.18709,-0.56127 -3.3676,-2.99342 -3.3676,-2.99342 0,0 0.8419,-6.17392 1.12253,-6.82873 0.28064,-0.65482 3.74178,-7.29646 3.74178,-7.29646 l 2.80633,-3.3676 4.11595,-2.80633 -0.0936,-2.43215 2.05798,-1.6838 1.49671,8.41899 0.8419,8.60608 -0.56127,4.95785 -1.77734,4.77076 -1.49671,2.5257 -2.43215,3.1805 -3.3676,-0.74835 c 0,0 1.6838,-1.40317 2.33861,-1.96443 0.65481,-0.56127 3.46114,-4.2095 3.46114,-4.2095 l 0.74835,-5.51911 0.18709,-5.42557 -0.37417,-7.01583 z"
       id="path220-7" /><path
       style="display:inline;fill:#000000;fill-opacity:1;stroke:none;stroke-width:1.4;stroke-dasharray:none;stroke-opacity:1"
       d="m 358.88956,125.62579 1.87089,-5.79975 3.55468,-4.77076 c 0,0 4.86431,-3.74178 5.33203,-4.11595 0.46772,-0.37418 14.78,-9.0738 14.78,-9.0738 l -0.37417,-1.49671 2.05797,0.0936 11.50595,-8.231904 0.56127,-0.841898 c 0,0 -1.21607,-1.028989 -1.6838,-0.935445 -0.46772,0.09355 -3.08696,2.525699 -3.08696,2.525699 l -7.67064,5.332026 c 0,0 -2.43215,-1.777344 -2.80632,-1.777344 -0.37418,0 -4.02241,0.280633 -3.46115,0.280633 0.56127,0 2.80633,2.993419 2.80633,2.993419 l -2.99341,2.899874 c 0,0 -5.98684,1.12253 -6.17393,1.77734 -0.18709,0.65481 -1.49671,1.96443 -1.49671,1.96443 0,0 -5.23848,0.0936 -5.23848,0.46772 0,0.37418 -6.17393,2.99342 -6.17393,2.99342 0,0 -5.42557,3.46114 -5.89329,3.64823 -0.46772,0.18709 -2.24506,1.49671 -2.24506,1.49671 l 0.93544,0.18709 7.20291,-3.3676 6.45456,-2.52569 -0.0935,1.02899 c 0,0 -1.87089,0.74835 -2.33861,1.30961 -0.46772,0.56127 -3.08696,3.18051 -3.08696,3.64823 0,0.46772 -3.3676,5.51912 -3.3676,5.51912 l -11.03823,7.76418 -12.25431,6.64165 -7.67064,2.80633 1.96444,1.30962 8.13835,-2.99342 7.67064,-4.02241 9.16734,-5.79975 3.83532,-1.96443 z"
       id="path221-5" /><path
       style="display:inline;fill:#000000;fill-opacity:1;stroke:none;stroke-width:1.4;stroke-dasharray:none;stroke-opacity:1"
       d="m 313.33347,140.40579 3.83532,0.18709 5.23848,-1.30962 5.23849,-1.49671 1.4967,0.8419 -0.46772,0.56126 -6.08038,2.15152 -3.08696,0.74836 -0.28064,1.77734 -1.4967,-1.40316 -2.71279,0.46772 -3.46114,-0.28064 -3.74177,-1.02898 -2.15152,-2.33861 -0.37418,-2.80633 0.46772,-3.18051 2.33861,-4.0224 2.99342,-4.2095 1.02898,2.33861 -2.80633,3.92886 -1.68379,3.46114 0.18709,2.71279 1.21607,1.77734 z"
       id="path222-5" /><path
       style="display:inline;fill:#000000;fill-opacity:1;stroke:none;stroke-width:1.4;stroke-dasharray:none;stroke-opacity:1"
       d="m 310.90132,137.13174 7.39,-1.40317 -1.87089,-2.3386 -5.51911,-8.23191 c 0,0 -1.6838,-6.17392 -1.49671,-6.92228 0.18709,-0.74835 0,-11.59949 0,-11.59949 l 0.28063,-0.65481 0.93545,-0.46773 3.74177,1.30963 5.23848,2.61924 5.23848,3.55468 -1.02898,1.96443 -11.97368,-7.29645 -0.28063,5.51911 0.28063,6.08038 3.27405,8.51254 2.24507,2.99341 0.46772,-2.89987 -3.3676,-10.00924 -2.89987,-8.79317 2.61924,3.55468 4.67722,11.5995 4.8643,-9.63506 2.5257,-4.11596 1.49671,1.59026 -3.27405,4.8643 -2.33861,5.33203 -1.21608,4.67722 -0.8419,6.5481 v 0.93544 l 2.89988,-0.56126 7.76418,-4.30304 6.5481,-5.0514 10.28988,-7.95126 2.3386,-2.89988 1.77735,-0.0935 -0.93545,1.49671 3.83532,-1.59025 1.6838,0.0935 -0.46772,0.6548 -4.67722,2.71279 -3.55468,2.15152 -6.82874,4.95785 -3.92886,3.18051 -4.67722,3.55468 -2.89987,1.77735 -5.42557,3.08696 -4.77077,1.77734 -4.11595,1.02899 -3.46113,-0.0935 z"
       id="path223-9" /><path
       style="display:inline;fill:#000000;fill-opacity:1;stroke:none;stroke-width:1.4;stroke-dasharray:none;stroke-opacity:1"
       d="m 325.96196,110.84578 4.67721,-4.8643 8.41899,-5.33203 5.89329,-3.835317 5.61267,-2.057974 2.89987,-0.841899 1.96443,0.65481 1.77734,1.216077 1.30962,2.525697 1.12253,2.245066 7.20292,-5.799751 2.99342,-2.15152 5.05139,-1.870887 1.40317,-0.46772 8.79317,-1.683799 7.29645,0.280634 c 0,0 3.55469,1.309619 4.11595,1.309619 0.56127,0 1.77734,1.403164 1.77734,1.403164 l -1.21607,1.122532 -2.5257,-1.216075 c 0,0 -3.27405,-0.374176 -3.64823,-0.374176 -0.37418,0 -3.64823,0 -3.64823,0 l -6.36101,0.187087 -3.3676,1.309621 -2.24506,2.432153 0.0935,-1.964431 -4.8643,2.057974 -5.98684,3.741775 -5.05139,4.95785 -3.92886,4.77076 -4.95785,7.01582 -1.6838,-0.8419 8.51253,-12.44139 -1.49671,-4.115952 -1.30962,-1.496708 -1.49671,-0.09354 -2.71278,0.65481 -2.33861,1.777343 -6.45456,7.951267 -3.27405,3.92886 -4.77076,7.20291 1.77734,-3.92886 -2.89987,2.43215 -3.55469,1.49671 -1.59025,-0.37418 v -0.56126 l 0.74835,-0.0935 c 0,0 0.8419,0.0935 1.40317,0.0935 0.56126,0 3.46114,-2.33861 3.46114,-2.33861 l 3.92886,-4.8643 3.74177,-4.49013 0.65481,-1.30962 -1.59025,0.56127 1.49671,-1.49671 5.05139,-2.5257 0.93545,-1.30962 0.28063,-0.374177 -2.71279,0.65481 -6.82874,3.648227 -6.08038,4.67721 c 0,0 -5.05139,5.51912 -5.05139,5.0514 0,-0.46772 -0.74835,-2.24507 -0.74835,-2.24507 z"
       id="path224-7" /><path
       style="display:inline;fill:#000000;fill-opacity:1;stroke:none;stroke-width:1.4;stroke-dasharray:none;stroke-opacity:1"
       d="m 317.78819,142.17304 -0.59531,2.3151 -0.8599,1.71979 -1.65364,1.25678 -2.11667,1.32291 -3.70417,1.19063 -3.175,0.26458 0.59532,1.05833 1.78593,1.38907 -1.5875,-0.19844 1.19063,3.10885 3.10885,4.16719 2.4474,3.30729 4.82865,3.63803 5.4901,3.175 4.43177,1.65364 1.19063,-2.44739 c 0,0 -2.51355,-0.79375 -2.77813,-0.8599 -0.26458,-0.0661 -7.47448,-3.50573 -7.47448,-3.50573 l -4.16719,-3.83646 2.71198,0.13229 -9.12812,-7.73906 5.62239,1.71979 -4.29948,-3.9026 2.18282,0.39687 3.24114,-1.25677 3.37344,-3.43958 1.12448,-2.84427 0.13229,-2.64584 z"
       id="path225-3" /><path
       style="display:inline;fill:#000000;fill-opacity:1;stroke:none;stroke-width:1.4;stroke-dasharray:none;stroke-opacity:1"
       d="m 347.24329,133.13272 c 0.0935,0 0.23386,0.30402 0.23386,0.30402 l 0.42095,0.39756 0.63143,0.11693 2.03459,-0.58465 1.94104,-0.6782 c 0,0 1.6838,-0.3274 2.0112,-0.37417 0.32741,-0.0468 1.40317,-0.0468 1.56687,-0.0702 0.1637,-0.0234 0.63143,0 0.63143,0 0,0 0.11693,-0.25725 0.11693,-0.35079 0,-0.0936 -0.18709,-0.46773 -0.18709,-0.46773 l -0.6782,-0.56126 -1.77734,-0.74836 -1.40317,-0.18709 -2.19829,0.25725 -1.8475,0.86529 -1.28623,0.93544 c 0,0 -0.42095,0.51449 -0.37418,0.6782 0.0468,0.1637 0.0702,0.8419 0.18709,0.70158 0.11693,-0.14032 -0.0234,-0.23386 -0.0234,-0.23386 z"
       id="path226-4" /><path
       style="display:inline;fill:#000000;fill-opacity:1;stroke:none;stroke-width:1.4;stroke-dasharray:none;stroke-opacity:1"
       d="m 325.98534,141.43478 0.77174,-0.0234 0.60804,0.42095 c 0,0 0.32741,0.72497 0.32741,0.8419 0,0.11693 -0.0935,1.09914 -0.0935,1.09914 l -2.22168,-0.35079 -0.0234,0.65481 c 0,0 0.14032,1.02899 0.14032,1.26285 0,0.23386 0.30402,1.1693 0.39756,1.23946 0.0935,0.0702 0.51449,0.8419 0.67819,0.93545 0.16371,0.0935 0.3508,0.44433 0.3508,0.44433 l 0.0468,0.44434 -0.81852,0.23386 -0.0701,0.67819 -1.96444,0.88867 -1.12253,0.6782 -1.26285,1.33301 -0.70158,2.6894 0.11693,1.61364 c 0,0 0.63142,2.33861 0.70158,2.43215 0.0702,0.0935 0.53788,1.23946 0.63143,1.28624 0.0935,0.0468 1.0056,1.42655 1.0056,1.42655 l 1.96443,1.49671 c 0,0 2.08136,0.72497 2.10475,0.81851 0.0234,0.0936 1.61364,0.30402 1.87088,0.39757 0.25725,0.0935 2.24507,0.35079 2.38538,0.35079 0.14032,0 5.3788,0.0701 5.3788,0.0701 0,0 2.362,-0.35079 2.47893,-0.37417 0.11693,-0.0234 3.76516,-1.05238 3.76516,-1.05238 0,0 2.3386,-1.02898 2.45554,-1.05237 0.11693,-0.0234 2.36199,-1.61364 2.6894,-1.70719 0.3274,-0.0935 2.89987,-2.1749 2.89987,-2.1749 l 2.17491,-2.38538 1.0056,-1.66041 0.3274,-0.37418 h 1.33301 l 0.51449,0.25724 0.6782,-0.25724 -0.0702,-0.70159 -0.74835,-0.81851 -0.77174,-0.42095 -0.74836,-0.14031 -2.0112,0.0234 -1.91766,0.3274 -1.26285,0.39757 0.0468,0.51449 0.79513,0.18709 1.19269,0.1637 -0.18709,0.95883 -1.02899,1.30962 -1.28623,1.28623 -1.63703,1.16931 -3.76516,2.22168 -1.59025,0.74835 -1.77734,0.5145 -1.91766,0.53788 c 0,0 -2.31522,0.42095 -2.71279,0.46772 -0.39756,0.0468 -1.82411,0 -1.98781,-0.0234 -0.16371,-0.0234 -1.8475,-0.18709 -1.8475,-0.18709 l -0.8419,-0.79513 -0.74836,0.0468 -0.51449,0.77174 c 0,0 -0.49111,0.42095 -0.79513,0.28064 -0.30402,-0.14032 -1.09915,-0.25725 -1.23946,-0.35079 -0.14032,-0.0935 -1.5201,-0.6782 -1.63703,-0.72498 -0.11693,-0.0468 -0.81851,-0.74835 -0.86528,-0.84189 -0.0468,-0.0935 -0.8419,-1.02899 -0.8419,-1.02899 l -0.39756,-0.95883 1.30962,0.8419 0.46772,0.37418 0.77174,0.30402 c 0,0 0.77174,0.1637 1.09914,0.1637 0.32741,0 1.19269,-0.0234 1.44994,-0.11693 0.25725,-0.0935 0.98222,-0.32741 1.30962,-0.42095 0.32741,-0.0935 0.77174,-0.30402 1.07576,-0.49111 0.30402,-0.18709 1.14592,-0.72497 1.28624,-0.93544 0.14031,-0.21048 0.53788,-0.98222 0.70158,-1.14592 0.1637,-0.1637 0.49111,-0.98222 0.63142,-1.30962 0.14032,-0.32741 0.44434,-1.05238 0.46773,-1.16931 0.0234,-0.11693 -0.72497,-2.15152 -0.77175,-2.33861 -0.0468,-0.18708 -1.09914,-0.93544 -1.21607,-1.02898 -0.11693,-0.0935 -0.95883,-0.35079 -0.95883,-0.35079 l -1.77734,-0.5145 c 0,0 -0.79513,-0.0468 -0.88868,0 -0.0935,0.0468 -1.66041,0.18709 -1.66041,0.18709 l -1.07576,0.28063 0.88868,0.5145 0.93544,-0.0935 h 0.46772 c 0,0 0.3274,0.0702 0.79513,0.1637 0.46772,0.0935 1.63702,0.72497 1.63702,0.72497 l 0.77174,0.53788 0.72497,0.79512 0.0234,0.63143 c 0,0 -0.3274,0.28063 -0.63142,0.30402 -0.30402,0.0234 -1.49671,0.25724 -1.6838,0.25724 -0.18709,0 -1.5201,0.0935 -1.63703,0.11694 -0.11693,0.0234 -1.91766,0.21047 -1.91766,0.21047 l -1.56686,-0.0234 c 0,0 -0.60804,-0.14032 -0.58466,-0.23386 0.0234,-0.0935 0.14032,-0.91206 0.14032,-0.91206 0,0 -0.37418,0.32741 -0.46772,0.32741 -0.0936,0 -0.42095,0.44433 -0.35079,0.58465 0.0702,0.14032 0.0468,0.49111 0.0935,0.74835 0.0468,0.25725 0.30402,0.86529 0.35079,0.95883 0.0468,0.0935 0.49111,0.60804 0.49111,0.60804 0,0 0.18709,0.46772 -0.0702,0.42095 -0.25725,-0.0468 -0.30402,-0.0468 -0.56126,-0.0936 -0.25725,-0.0468 -0.30402,-0.18709 -0.63143,-0.42095 -0.3274,-0.23386 -0.65481,-0.44433 -0.72497,-0.79512 -0.0702,-0.3508 -0.14031,-0.46773 -0.14031,-0.72497 0,-0.25725 -0.0468,-0.6782 -0.0468,-0.77174 0,-0.0935 0.0234,-0.60804 0.0234,-0.60804 0,0 0.0468,-0.56127 0.18708,-0.74836 0.14032,-0.18709 0.18709,-0.65481 0.32741,-0.79512 0.14032,-0.14032 0.39756,-0.32741 0.63143,-0.46772 0.23386,-0.14032 0.35079,-0.23386 0.56126,-0.30402 0.21047,-0.0702 0.37418,-0.0702 0.65481,-0.11693 0.28063,-0.0468 0.32741,-0.11693 0.81851,-0.11693 0.49111,0 1.23947,-0.11693 1.33301,-0.11693 0.0935,0 0.65481,-0.11694 0.65481,-0.11694 l 0.21048,-0.39756 -0.65482,-0.0702 -1.0056,-0.23386 c 0,0 1.09915,-0.86529 1.44994,-1.02899 0.35079,-0.1637 1.52009,-1.33301 1.56687,-1.47332 0.0468,-0.14032 1.12253,-1.49671 1.12253,-1.49671 0,0 0.32741,-2.31522 -0.18709,-4.32643 -0.51449,-2.0112 -1.56686,-2.87648 -1.56686,-2.87648 l -0.53789,-0.58466 -3.08696,1.05238 -1.73057,0.28063 -1.05237,0.77174 c 0,0 -0.3508,2.57247 0.42095,3.99902 0.77174,1.42655 0.77174,1.44994 0.77174,1.44994 l 0.63142,1.02899 0.58465,0.35079 0.63143,0.25724 0.46772,0.16371 0.28063,-0.0234 -1.07576,-0.30402 -0.18709,-0.21048 -0.35079,-0.56126 -0.28063,-0.44434 c 0,0 -0.0935,-0.39756 -0.14032,-0.49111 -0.0468,-0.0935 -0.23386,-0.77174 -0.23386,-0.77174 0,0 -0.0702,-0.28063 -0.0702,-0.44433 0,-0.1637 -0.0702,-0.5145 -0.0468,-0.60804 0.0234,-0.0935 0,-0.56127 0,-0.56127 l 0.42095,-1.02898 0.51449,-0.74836 c 0,0 0.46773,-0.51449 0.53789,-0.60804 0.0702,-0.0935 0.42095,-0.25725 0.42095,-0.25725 z"
       id="path227-8" /><path
       style="display:inline;fill:#000000;fill-opacity:1;stroke:none;stroke-width:1.4;stroke-dasharray:none;stroke-opacity:1"
       d="m 347.91762,139.03111 -0.0165,0.33073 3.25768,-0.13229 2.38125,-0.47956 c 0,0 1.38907,0.0165 1.47175,-0.0496 0.0827,-0.0662 -0.21497,-0.49609 -0.41341,-0.61185 -0.19844,-0.11575 -2.33165,-0.71106 -2.46394,-0.67799 -0.13229,0.0331 -1.86862,-0.0165 -2.18281,0.21497 -0.31419,0.23151 -2.03399,1.4056 -2.03399,1.4056 z"
       id="path229-4" /><path
       style="display:inline;fill:#000000;fill-opacity:1;stroke:none;stroke-width:1.4;stroke-dasharray:none;stroke-opacity:1"
       d="m 346.46241,146.3733 c 0.19844,-0.0331 0.66146,-0.0331 0.66146,-0.0331 l 0.92604,-3.5388 1.35599,-2.61276 -0.13229,1.91823 0.29765,1.32291 0.76068,1.45521 0.8599,0.99219 0.76067,0.76068 0.95912,0.23151 1.2237,-0.0992 1.32291,-0.39688 0.92605,-0.66146 1.0914,-0.7276 c 0,0 0.39688,-0.79375 0.46302,-0.92604 0.0661,-0.13229 0.42995,-1.02526 0.42995,-1.02526 l 0.33073,-1.35599 2.8112,0.39687 c 0,0 -0.42995,-0.46302 -0.52917,-0.62838 -0.0992,-0.16537 -0.52917,-0.99219 -0.52917,-0.99219 0,0 -0.76067,-0.89297 -0.79375,-1.09141 -0.0331,-0.19843 -0.82682,-1.12448 -0.82682,-1.12448 l -1.55443,-1.12447 -1.22369,-0.69454 -1.35599,-0.26458 -1.35599,-0.0331 -2.0836,0.23151 -1.55442,0.46302 -1.28985,1.25677 -0.59531,1.12448 2.67891,-1.12448 2.97656,0.19844 c 0,0 1.78594,0.26458 1.85208,0.42995 0.0661,0.16536 0.4961,0.92604 0.4961,0.92604 l 0.0661,0.62838 -0.3638,0.92605 -0.76068,0.33073 -0.95911,-0.0331 -0.59531,-0.33073 -0.29766,-0.72761 v -0.69453 l 0.26458,-0.7276 c 0,0 0.42995,-0.29766 0.56224,-0.33073 0.13229,-0.0331 0.79375,-0.0661 0.79375,-0.0661 l 0.56224,0.23151 0.52917,0.56224 h 0.0992 c 0,0 0.29765,-0.33073 0.19843,-0.59532 -0.0992,-0.26458 0.0331,-1.15755 -0.79375,-1.32291 -0.82682,-0.16537 -1.28984,-0.46302 -2.11666,-0.3638 -0.82683,0.0992 0.89297,1.0914 0.89297,1.0914 l 0.89297,0.4961 -6.87917,0.46302 -0.62839,1.12448 -0.62838,1.4552 -0.39688,2.01745 v 2.0836 z"
       id="path228-4" /><path
       style="display:inline;fill:#000000;fill-opacity:1;stroke:none;stroke-width:1.4;stroke-dasharray:none;stroke-opacity:1"
       d="m 353.11007,113.92877 3.96875,-4.89479 6.61458,-5.15938 7.9375,-5.027078 8.20208,-4.233333 8.99584,-2.116667 -8.86354,2.645834 -1.7198,1.719791 -5.68854,2.645834 -5.55625,3.571869 -5.55625,3.57188 -3.57187,3.04271 -1.45521,3.175 z"
       id="path341-3" /><path
       style="fill:#000000;fill-opacity:1;stroke:none;stroke-width:1.4;stroke-dasharray:none;stroke-opacity:1"
       d="m 327.94305,171.53692 7.13274,2.19829 0.8419,-2.61924 -7.20291,-2.12813 z"
       id="path498" /><path
       style="fill:#fc850e;fill-opacity:1;stroke:none;stroke-width:1.4;stroke-dasharray:none;stroke-opacity:1"
       d="m 369.28525,137.87704 0.0731,0.11108 -1.39438,0.0892 c 0,0 -0.0395,-0.0424 -0.0307,-0.0438 0.009,-0.002 1.35199,-0.15639 1.35199,-0.15639 z"
       id="path499" /></g></svg>
