<?xml version="1.0" standalone="no"?>
<!DOCTYPE svg PUBLIC "-//W3C//DTD SVG 20010904//EN"
 "http://www.w3.org/TR/2001/REC-SVG-20010904/DTD/svg10.dtd">
<svg version="1.0" xmlns="http://www.w3.org/2000/svg"
 width="512.000000pt" height="512.000000pt" viewBox="0 0 512.000000 512.000000"
 preserveAspectRatio="xMidYMid meet">

<g transform="translate(0.000000,512.000000) scale(0.100000,-0.100000)"
fill="#00000l" stroke="none">
<path d="M2005 5101 c-54 -25 -77 -53 -115 -141 -160 -369 -441 -811 -723
-1137 -52 -59 -153 -165 -225 -234 -141 -138 -154 -160 -128 -222 24 -58 52
-70 154 -65 111 6 157 26 252 112 63 56 110 82 110 60 0 -17 -240 -343 -350
-474 -130 -156 -289 -326 -395 -422 -60 -54 -118 -111 -127 -126 -22 -34 -23
-103 -3 -143 28 -53 68 -69 173 -69 154 0 231 34 371 165 70 65 84 74 101 65
11 -6 20 -18 20 -26 0 -29 -223 -336 -407 -561 -184 -225 -371 -425 -553 -590
-122 -112 -160 -164 -160 -222 1 -80 65 -164 136 -177 20 -4 84 -4 142 -1 179
8 271 53 440 212 77 72 96 86 116 81 34 -8 38 -29 16 -78 -37 -81 -17 -156 52
-198 27 -16 51 -20 128 -20 54 0 122 7 155 15 116 31 221 107 290 211 51 76
71 71 67 -16 -2 -36 1 -77 7 -91 17 -45 71 -98 112 -110 21 -7 39 -17 39 -23
-1 -28 -41 -289 -54 -354 -21 -99 -20 -126 7 -158 23 -26 30 -28 158 -36 74
-5 249 -8 390 -5 281 5 294 7 319 68 10 24 10 45 -5 117 -17 88 -44 257 -45
279 0 9 7 10 26 3 14 -6 47 -10 73 -10 113 0 219 37 298 105 41 35 43 36 83
24 32 -10 46 -21 60 -50 13 -25 34 -44 65 -59 25 -12 45 -26 45 -30 0 -26 -23
-179 -41 -267 -18 -94 -19 -104 -4 -132 9 -18 27 -34 43 -38 36 -10 589 -10
624 0 42 11 61 56 48 114 -13 55 -50 290 -50 315 0 9 18 25 44 37 27 14 50 34
62 56 18 33 21 35 74 35 46 0 64 -6 105 -33 80 -53 131 -69 235 -74 84 -4 99
-2 128 17 18 11 40 37 49 58 14 34 14 41 -1 83 -21 61 -20 76 5 84 16 5 38
-10 108 -78 129 -124 229 -167 390 -167 109 0 168 44 178 132 8 66 -14 101
-123 198 -173 154 -423 434 -611 685 -132 176 -176 243 -169 260 11 28 40 15
107 -50 89 -87 156 -117 268 -123 100 -6 140 10 166 65 32 66 19 88 -142 245
-190 186 -356 381 -512 602 -78 111 -70 133 19 51 79 -73 132 -96 221 -98 62
-2 71 0 96 25 19 20 27 38 27 63 0 31 -14 49 -150 187 -216 219 -362 408 -528
683 -74 123 -226 420 -226 443 0 21 -69 70 -109 77 -32 5 -51 2 -84 -14 -42
-21 -47 -28 -150 -234 -58 -116 -112 -221 -120 -232 -15 -20 -15 -20 -38 0
-43 39 -226 265 -320 397 -185 259 -345 534 -455 777 -64 143 -73 157 -129
182 -51 24 -99 24 -150 0z m876 -1637 c14 -13 16 -21 8 -35 -5 -11 -13 -19
-17 -19 -8 0 -42 53 -42 64 0 12 34 5 51 -10z"/>
</g>
</svg>
