<?xml version="1.0" standalone="no"?>
<!DOCTYPE svg PUBLIC "-//W3C//DTD SVG 20010904//EN"
 "http://www.w3.org/TR/2001/REC-SVG-20010904/DTD/svg10.dtd">
<svg version="1.0" xmlns="http://www.w3.org/2000/svg"
 width="512.000000pt" height="512.000000pt" viewBox="0 0 512.000000 512.000000"
 preserveAspectRatio="xMidYMid meet">

<g transform="translate(0.000000,512.000000) scale(0.100000,-0.100000)"
fill="#000000" stroke="none">
<path d="M1079 4831 c-64 -20 -128 -62 -181 -118 -27 -29 -545 -885 -618
-1022 -19 -36 -14 -543 6 -630 36 -157 160 -313 304 -383 99 -48 166 -63 275
-61 138 1 256 46 372 140 l43 34 57 -44 c114 -88 229 -130 363 -131 47 0 110
6 140 13 82 20 188 74 245 125 l50 44 35 -33 c100 -96 241 -149 395 -148 150
1 286 53 385 148 l35 33 49 -44 c58 -50 166 -106 246 -125 30 -7 96 -13 145
-12 138 1 256 46 372 140 l43 34 57 -44 c114 -88 229 -130 363 -131 103 0 171
15 269 61 97 46 202 149 254 249 59 115 66 163 67 472 2 270 1 272 -22 315
-14 23 -147 249 -297 502 -278 470 -320 529 -406 579 -100 59 -19 56 -1569 55
-1337 0 -1424 -1 -1477 -18z"/>
<path d="M1195 2480 c-120 -58 -198 -75 -345 -75 -131 1 -231 21 -323 65 -22
11 -42 20 -44 20 -2 0 -3 -427 -3 -949 0 -918 1 -951 20 -1012 35 -115 132
-211 243 -244 36 -11 97 -15 214 -15 l163 0 0 578 c0 644 -1 632 67 712 21 24
60 53 87 66 l51 24 1235 0 1235 0 51 -24 c27 -13 66 -42 87 -66 68 -80 67 -68
67 -712 l0 -578 163 0 c117 0 178 4 214 15 111 33 208 129 243 244 19 61 20
94 20 1011 l0 949 -58 -24 c-116 -47 -180 -59 -317 -59 -151 0 -216 14 -342
74 l-81 40 -84 -39 c-130 -61 -193 -75 -343 -75 -151 0 -215 14 -346 76 l-87
40 -43 -25 c-72 -41 -185 -77 -285 -89 -157 -20 -344 15 -473 89 l-43 25 -87
-40 c-131 -62 -195 -76 -346 -76 -151 0 -216 14 -342 75 -45 21 -83 39 -85 38
-2 0 -39 -18 -83 -39z"/>
<path d="M1440 800 l0 -530 480 0 480 0 0 530 0 530 -480 0 -480 0 0 -530z"/>
<path d="M2720 800 l0 -530 480 0 480 0 0 530 0 530 -480 0 -480 0 0 -530z"/>
</g>
</svg>
