<?xml version="1.0" standalone="no"?>
<!DOCTYPE svg PUBLIC "-//W3C//DTD SVG 20010904//EN"
 "http://www.w3.org/TR/2001/REC-SVG-20010904/DTD/svg10.dtd">
<svg version="1.0" xmlns="http://www.w3.org/2000/svg"
 width="512.000000pt" height="512.000000pt" viewBox="0 0 512.000000 512.000000"
 preserveAspectRatio="xMidYMid meet">

<g transform="translate(0.000000,512.000000) scale(0.100000,-0.100000)"
fill="#000000" stroke="none">
<path d="M848 5055 c-80 -45 -173 -280 -238 -605 -52 -259 -64 -380 -64 -680
-1 -282 7 -393 46 -615 37 -217 38 -202 -35 -355 -59 -122 -102 -226 -182
-438 -36 -96 -60 -123 -142 -157 -144 -59 -183 -95 -183 -166 0 -17 13 -71 30
-120 123 -369 421 -708 964 -1099 421 -302 965 -612 1261 -717 263 -94 405
-68 850 152 563 279 1218 738 1509 1058 211 232 356 482 397 684 11 55 11 67
-4 98 -14 30 -33 44 -133 92 -69 34 -123 67 -133 83 -10 14 -57 124 -106 245
-48 121 -109 264 -136 317 -27 54 -49 110 -49 126 0 15 13 106 29 202 44 264
54 406 48 692 -7 336 -40 561 -127 848 -84 280 -145 370 -247 370 -42 0 -115
-47 -242 -155 -329 -277 -663 -616 -940 -952 -23 -29 -49 -53 -56 -53 -7 0
-27 28 -45 63 -152 287 -444 509 -529 401 -35 -45 -24 -113 45 -281 34 -83 43
-136 24 -148 -17 -11 -37 12 -85 100 -63 115 -129 201 -179 230 -56 33 -89 32
-116 -2 -21 -26 -22 -35 -16 -123 3 -52 9 -114 12 -137 4 -24 3 -43 -2 -43 -5
0 -38 39 -74 87 -207 275 -734 795 -975 962 -72 49 -132 62 -177 36z m265
-691 c80 -41 275 -225 406 -383 65 -79 76 -115 44 -143 -10 -9 -49 -37 -88
-63 -115 -79 -205 -148 -304 -235 -52 -44 -101 -80 -110 -78 -38 7 -74 307
-75 623 -1 203 1 234 17 263 20 37 57 43 110 16z m3004 -16 c34 -64 28 -447
-13 -728 -16 -114 -30 -160 -48 -160 -7 0 -41 26 -77 58 -100 89 -192 160
-318 248 -145 101 -146 105 -65 211 109 142 313 334 409 386 17 9 45 16 62 17
27 0 36 -6 50 -32z m-2624 -1995 c330 -73 675 -394 841 -782 20 -44 58 -146
85 -226 72 -207 83 -225 146 -225 43 0 79 48 110 147 111 348 225 556 414 755
218 230 471 351 731 351 222 0 342 -53 674 -301 54 -40 122 -85 150 -99 75
-37 96 -60 96 -102 0 -98 -202 -342 -461 -558 -462 -385 -1215 -838 -1592
-959 -136 -43 -214 -28 -481 93 -411 186 -1061 608 -1442 936 -225 194 -383
397 -384 494 0 37 17 53 139 124 47 27 137 89 200 136 145 110 244 167 346
199 146 45 278 51 428 17z"/>
<path d="M1650 1744 c-141 -61 -186 -265 -87 -396 58 -76 135 -105 217 -84
107 28 172 120 172 244 0 78 -16 123 -61 175 -62 70 -162 95 -241 61z"/>
<path d="M3302 1734 c-177 -88 -174 -368 5 -458 44 -22 135 -21 181 3 46 24
73 53 102 110 64 128 17 286 -102 345 -67 33 -119 33 -186 0z"/>
<path d="M2490 998 c-82 -23 -126 -86 -118 -170 14 -141 178 -221 290 -142 65
45 90 95 85 171 -2 53 -7 67 -32 93 -48 50 -145 71 -225 48z"/>
</g>
</svg>
